<?xml version="1.0" encoding="UTF-8"?>
<svg id="MAP" width="140px" height="182px" viewBox="0 0 140 182" version="1.1" xmlns="http://www.w3.org/2000/svg" xmlns:xlink="http://www.w3.org/1999/xlink">
    <title>XMLID_1312_</title>
    <g id="Page-1" stroke="none" stroke-width="1" fill="none" fill-rule="evenodd">
        <g id="OQRDHG1-[Converted]" transform="translate(-212.000000, 0.000000)" fill-rule="nonzero">
            <g id="XMLID_1312_" transform="translate(212.000000, 0.000000)">
                <path d="M135.25,174.84 C135.25,178.43 106.85,181.34 71.81,181.34 C36.77,181.34 8.37,178.43 8.37,174.84 C8.37,171.25 36.77,168.34 71.81,168.34 C106.84,168.34 135.25,171.25 135.25,174.84 Z" id="XMLID_1574_" fill="#CFCECE" opacity="0.26"></path>
                <g id="XMLID_1313_">
                    <path d="M57.04,6.44 C57.04,6.44 40.36,6.82 35.18,20.44 C30,34.05 33.26,48.43 35.18,53.23 C37.1,58.02 59.92,67.04 59.92,67.04 C59.92,67.04 54.55,75.67 56.28,80.46 C58.01,85.25 60.28,87.51 60.28,87.51 C60.28,87.51 51.78,92.27 51.29,96.28 C50.79,100.45 49.95,109.41 51.87,110.95 C53.79,112.48 67.78,103.47 69.89,100.79 C72,98.11 67.68,88.16 67.68,88.16 C67.68,88.16 74.49,86.79 77.36,81.81 C80.24,76.82 76.59,65.13 76.59,65.13 C76.59,65.13 91.35,59.95 92.7,46.91 C94.05,33.86 98.46,1.07 57.04,6.44 Z" id="path-111" fill="#E48125"></path>
                    <g id="XMLID_1513_" transform="translate(0.000000, 59.000000)">
                        <path d="M36.66,42.75 L35.71,43.59 C35.72,43.66 35.73,43.7 35.73,43.7 L40.33,43.27 C40.33,43.27 42.34,41.51 42.2,38.99 C42.06,36.47 40.8,34.96 40.55,34.71 C40.55,34.71 38.07,35.11 36.45,36.83 C34.97,38.41 35.6,42.85 35.71,43.58 L36.66,42.75 Z" id="path-110" fill="#E69887"></path>
                        <path d="M66.39,10.65 C65.62,10.54 64.88,10.36 64.28,10.09 C62.75,9.4 61.86,7.78 61.48,6.93 C60.36,7.15 59.54,7.16 59.54,7.16 L60.98,15.5 C65.01,20.49 63.9,26.29 63.9,26.29 C68.84,30.75 69.92,35.97 69.92,35.97 L69.92,23.81 C69.6,23.41 69.34,22.92 69.27,22.36 C69.11,21.01 67.06,13.2 66.39,10.65 Z" id="path-109" fill="#E593AC"></path>
                        <g id="XMLID_1548_" transform="translate(0.000000, 26.000000)">
                            <path d="M63.9,0.3 C63.9,0.3 45.54,7.35 31.73,21.34 C17.92,35.34 0.67,40.32 0.67,40.32 C0.67,40.32 -1.62,46.38 3.14,51.74 C6.59,50.44 14.24,47.16 21.81,41.19 C32.02,33.14 42.81,23.07 53.16,16.17 C53.16,16.17 39.07,30.84 29.29,39.32 C19.51,47.8 17.35,48.96 6.28,54.42 C6.28,54.42 4,60.81 7.35,66.12 C12.01,62.35 17.56,56.08 21.81,51.54 C28.28,44.64 52.15,23.5 52.15,23.5 C52.15,23.5 16.05,66.93 13.9,71.24 C13.9,71.24 12.04,77.94 20.45,80.24 C22.76,76.52 32.37,61.07 38.16,52.01 C44.78,41.66 55.75,28.95 55.75,28.95 C55.75,28.95 29.86,72.38 27.13,81.01 C27.13,81.01 27.14,89.21 38.84,88.22 C43.43,78.27 48.44,58.92 51.72,49.8 C56.18,37.43 61.93,24.49 61.93,24.49 C61.93,24.49 47.84,73.24 45.1,87.05 C45.1,87.05 44.24,92.08 53.73,91.08 C53.73,91.08 57.47,52.4 69.91,9.97 C69.91,9.98 68.36,2.07 63.9,0.3 Z" id="path-108" fill="#FBDCE4"></path>
                            <g id="XMLID_1551_" transform="translate(3.000000, 16.000000)" fill="#FACCD8">
                                <path d="M35.15,36.02 C29.36,45.08 19.75,60.53 17.44,64.25 C19.19,64.73 21.37,65.02 24.12,65.02 C26.85,56.39 52.74,12.96 52.74,12.96 C52.74,12.96 41.77,25.67 35.15,36.02 Z" id="path-107"></path>
                                <path d="M50.16,0.16 C39.81,7.06 29.02,17.13 18.81,25.18 C11.23,31.16 3.58,34.44 0.14,35.73 C0.96,36.65 1.99,37.56 3.28,38.41 C14.35,32.95 16.51,31.79 26.29,23.31 C36.07,14.83 50.16,0.16 50.16,0.16 Z" id="path-106"></path>
                                <path d="M48.72,33.82 C45.43,42.94 40.43,62.29 35.84,72.24 C37.64,72.09 39.71,71.72 42.11,71.07 C44.84,57.26 58.94,8.51 58.94,8.51 C58.94,8.51 53.18,21.45 48.72,33.82 Z" id="path-105"></path>
                                <path d="M18.81,35.54 C14.56,40.07 9.01,46.35 4.35,50.12 C5.61,52.11 7.65,53.95 10.9,55.25 C13.06,50.94 49.15,7.51 49.15,7.51 C49.15,7.51 25.28,28.64 18.81,35.54 Z" id="path-104"></path>
                            </g>
                        </g>
                        <path d="M66.39,10.65 C67.06,13.2 69.11,21.01 69.27,22.37 C69.34,22.93 69.6,23.42 69.92,23.82 L69.92,10.83 C69.18,10.85 67.75,10.85 66.39,10.65 Z" id="path-103" fill="#F8BBCB"></path>
                        <g id="XMLID_1519_" transform="translate(32.000000, 6.000000)">
                            <path d="M26.19,12.72 L20.44,10.17 C20.44,10.17 20.23,10.55 19.9,11.16 C21.44,12.28 23.73,13.04 23.65,13.37 C23.57,13.72 22.9,14.84 22.7,15.16 C23.15,15.28 23.64,15.36 24.17,15.4 C25.36,13.87 26.19,12.72 26.19,12.72 Z" id="path-102" fill="#E593AC"></path>
                            <path d="M19.9,11.16 C19.65,11.61 19.34,12.17 18.97,12.81 C19.48,13.45 20.67,14.64 22.7,15.16 C22.9,14.84 23.57,13.72 23.65,13.37 C23.73,13.04 21.43,12.27 19.9,11.16 Z" id="path-101" fill="#F3B2C6"></path>
                            <path d="M26.86,0.79 C25.04,0.84 22.83,3.57 21.54,6.4 C21.54,6.4 19.29,7.02 19.29,8.99 C19.29,10.96 28.49,15.08 30.17,12.01 C31.85,8.94 28.69,0.74 26.86,0.79 Z" id="path-100" fill="#F8BBCB"></path>
                            <path d="M25.98,2.19 C25.98,2.19 22.17,5.71 22.46,9.56 C22.45,9.56 25.76,3.59 25.98,2.19 Z" id="path-99" fill="#E593AC"></path>
                            <path d="M27.02,3.34 C27.02,3.34 23.71,8.7 23.75,11.07 C23.75,11.07 27.34,6.43 27.02,3.34 Z" id="path-98" fill="#E593AC"></path>
                            <path d="M28.31,5.03 C28.31,5.03 27.45,9.92 25.65,11.97 C25.65,11.97 29.1,11.21 28.31,5.03 Z" id="path-97" fill="#E593AC"></path>
                            <g id="XMLID_1520_" transform="translate(0.000000, 12.000000)">
                                <path d="M4.61,24.8 C4.52,24.12 4.48,23.19 4.82,22.63 C4.82,22.63 7.17,27.23 8.65,26.51 C8.69,26.49 8.72,26.46 8.76,26.44 C8.35,26.16 6.81,25.04 6.21,23.47 C5.51,21.65 4.92,20.62 4.7,20.91 C4.51,21.16 3.07,22.82 3.88,25.45 L4.61,24.8 Z" id="path-96" fill="#F3B8A6"></path>
                                <path d="M2.68,26.51 L3.88,25.45 C3.07,22.83 4.51,21.16 4.7,20.91 C4.92,20.62 5.51,21.65 6.21,23.47 C6.81,25.04 8.35,26.16 8.76,26.44 C10.01,25.66 8.08,23.52 8.31,21.43 C8.55,19.27 8.21,17.45 8.21,17.45 C7.73,16.54 11.95,12.94 14.35,11.36 C16.07,10.23 20.72,5.77 22.69,3.15 C20.66,2.62 19.47,1.43 18.96,0.8 C17.72,2.97 15.98,5.87 14.89,7.08 C14.1,7.96 8.53,11.97 6.24,13.37 C3.64,14.96 0.87,22.05 0.97,22.77 C1.04,23.23 1.99,25.16 2.68,26.51 Z" id="path-95" fill="#FCD1B9"></path>
                                <path d="M22.69,3.16 C20.72,5.77 16.07,10.23 14.35,11.37 C11.95,12.95 7.73,16.55 8.21,17.46 C8.21,17.46 15.47,12.59 18.35,10.08 C20.05,8.6 22.47,5.61 24.17,3.41 C23.64,3.36 23.15,3.28 22.69,3.16 Z" id="path-94" fill="#F3B8A6"></path>
                            </g>
                        </g>
                        <path d="M69.91,5.9 L69.91,0.82 L67.68,1.13 C67.47,3.02 66.58,4.31 65.47,5.2 C66.41,5.55 68.1,6.03 69.91,5.9 Z" id="path-93" fill="#F3B8A6"></path>
                        <path d="M65.47,5.2 C64.22,6.2 62.68,6.7 61.48,6.94 C61.86,7.78 62.76,9.4 64.28,10.1 C65.94,10.85 68.77,10.87 69.91,10.84 L69.91,5.9 C68.1,6.03 66.41,5.55 65.47,5.2 Z" id="path-92" fill="#FCD1B9"></path>
                        <path d="M61.48,6.94 C61.48,6.94 59.52,7.58 60.39,9.2 C61.25,10.82 62.66,10.1 62.66,10.1 C62.66,10.1 62.08,11.5 63.49,12.15 C64.89,12.8 65.54,11.57 65.54,11.57 C65.54,11.57 65.5,12.9 66.87,13.01 C68.24,13.12 68.54,11.95 68.54,11.95 C68.54,11.95 68.83,13.17 69.94,13.17 L69.92,10.83 C69.91,10.83 63.25,10.79 61.48,6.94 Z" id="path-91" fill="#FEF8FB"></path>
                    </g>
                    <path d="M103.16,101.75 L104.11,102.59 C104.1,102.66 104.09,102.7 104.09,102.7 L99.49,102.27 C99.49,102.27 97.48,100.51 97.62,97.99 C97.76,95.47 99.02,93.96 99.27,93.71 C99.27,93.71 101.75,94.11 103.37,95.83 C104.85,97.41 104.22,101.85 104.11,102.58 L103.16,101.75 Z" id="path-90" fill="#E69887"></path>
                    <path d="M73.43,69.65 C74.2,69.54 74.94,69.36 75.54,69.09 C77.07,68.4 77.96,66.78 78.34,65.93 C79.46,66.15 80.28,66.16 80.28,66.16 L78.84,74.5 C74.81,79.49 75.92,85.29 75.92,85.29 C70.98,89.75 69.9,94.97 69.9,94.97 L69.9,82.81 C70.22,82.41 70.48,81.92 70.55,81.36 C70.71,80.01 72.76,72.2 73.43,69.65 Z" id="path-89" fill="#E593AC"></path>
                    <g id="XMLID_1502_" transform="translate(69.000000, 85.000000)">
                        <path d="M6.92,0.3 C6.92,0.3 25.28,7.35 39.09,21.34 C52.9,35.33 70.15,40.32 70.15,40.32 C70.15,40.32 72.44,46.38 67.68,51.74 C64.23,50.44 56.58,47.16 49.01,41.19 C38.8,33.14 28.01,23.07 17.66,16.17 C17.66,16.17 31.75,30.84 41.53,39.32 C51.31,47.8 53.47,48.96 64.54,54.42 C64.54,54.42 66.82,60.81 63.47,66.12 C58.81,62.35 53.26,56.08 49.01,51.54 C42.54,44.64 18.67,23.5 18.67,23.5 C18.67,23.5 54.77,66.93 56.92,71.24 C56.92,71.24 58.78,77.94 50.37,80.24 C48.06,76.52 38.45,61.07 32.66,52.01 C26.04,41.66 15.07,28.95 15.07,28.95 C15.07,28.95 40.96,72.38 43.69,81.01 C43.69,81.01 43.68,89.21 31.98,88.22 C27.39,78.27 22.38,58.92 19.1,49.8 C14.64,37.43 8.89,24.49 8.89,24.49 C8.89,24.49 22.98,73.24 25.72,87.05 C25.72,87.05 26.58,92.08 17.09,91.08 C17.09,91.08 13.35,52.4 0.91,9.97 C0.91,9.98 2.46,2.07 6.92,0.3 Z" id="path-88" fill="#FBDCE4"></path>
                        <g id="XMLID_1503_" transform="translate(8.000000, 16.000000)" fill="#FACCD8">
                            <path d="M24.66,36.02 C30.45,45.08 40.06,60.53 42.37,64.25 C40.62,64.73 38.44,65.02 35.69,65.02 C32.96,56.39 7.07,12.96 7.07,12.96 C7.07,12.96 18.05,25.67 24.66,36.02 Z" id="path-87"></path>
                            <path d="M9.66,0.16 C20.01,7.06 30.8,17.13 41.01,25.18 C48.59,31.16 56.24,34.44 59.68,35.73 C58.86,36.65 57.83,37.56 56.54,38.41 C45.47,32.95 43.31,31.79 33.53,23.31 C23.75,14.83 9.66,0.16 9.66,0.16 Z" id="path-86"></path>
                            <path d="M11.1,33.82 C14.39,42.94 19.39,62.29 23.98,72.24 C22.18,72.09 20.11,71.72 17.71,71.07 C14.98,57.26 0.88,8.51 0.88,8.51 C0.88,8.51 6.64,21.45 11.1,33.82 Z" id="path-85"></path>
                            <path d="M41.01,35.54 C45.26,40.07 50.81,46.35 55.47,50.12 C54.21,52.11 52.17,53.95 48.92,55.25 C46.76,50.94 10.67,7.51 10.67,7.51 C10.67,7.51 34.54,28.64 41.01,35.54 Z" id="path-84"></path>
                        </g>
                    </g>
                    <path d="M73.43,69.65 C72.76,72.2 70.71,80.01 70.55,81.37 C70.48,81.93 70.22,82.42 69.9,82.82 L69.9,69.83 C70.64,69.85 72.06,69.85 73.43,69.65 Z" id="path-83" fill="#F8BBCB"></path>
                    <g id="XMLID_1455_" transform="translate(77.000000, 65.000000)">
                        <path d="M4.63,12.72 L10.38,10.17 C10.38,10.17 10.59,10.55 10.92,11.16 C9.38,12.28 7.09,13.04 7.17,13.37 C7.25,13.72 7.92,14.84 8.12,15.16 C7.67,15.28 7.18,15.36 6.65,15.4 C5.46,13.87 4.63,12.72 4.63,12.72 Z" id="path-82" fill="#E593AC"></path>
                        <path d="M10.92,11.16 C11.17,11.61 11.48,12.17 11.85,12.81 C11.34,13.45 10.15,14.64 8.12,15.16 C7.92,14.84 7.25,13.72 7.17,13.37 C7.09,13.04 9.39,12.27 10.92,11.16 Z" id="path-81" fill="#F3B2C6"></path>
                        <path d="M3.95,0.79 C5.77,0.84 7.98,3.57 9.27,6.4 C9.27,6.4 11.52,7.02 11.52,8.99 C11.52,10.96 2.32,15.08 0.64,12.01 C-1.04,8.94 2.13,0.74 3.95,0.79 Z" id="path-80" fill="#F8BBCB"></path>
                        <path d="M4.84,2.19 C4.84,2.19 8.65,5.71 8.36,9.56 C8.36,9.56 5.06,3.59 4.84,2.19 Z" id="path-79" fill="#E593AC"></path>
                        <path d="M3.8,3.34 C3.8,3.34 7.11,8.7 7.07,11.07 C7.07,11.07 3.48,6.43 3.8,3.34 Z" id="path-78" fill="#E593AC"></path>
                        <path d="M2.5,5.03 C2.5,5.03 3.36,9.92 5.16002164,11.97 C5.17,11.97 1.71,11.21 2.5,5.03 Z" id="path-77" fill="#E593AC"></path>
                        <g id="XMLID_1456_" transform="translate(6.000000, 12.000000)">
                            <path d="M20.21,24.8 C20.3,24.12 20.34,23.19 20,22.63 C20,22.63 17.65,27.23 16.17,26.51 C16.13,26.49 16.1,26.46 16.06,26.44 C16.47,26.16 18.01,25.04 18.61,23.47 C19.31,21.65 19.9,20.62 20.12,20.91 C20.31,21.16 21.75,22.82 20.94,25.45 L20.21,24.8 Z" id="path-76" fill="#F3B8A6"></path>
                            <path d="M22.14,26.51 L20.94,25.45 C21.75,22.83 20.31,21.16 20.12,20.91 C19.9,20.62 19.31,21.65 18.61,23.47 C18.01,25.04 16.47,26.16 16.06,26.44 C14.81,25.66 16.74,23.52 16.51,21.43 C16.27,19.27 16.61,17.45 16.61,17.45 C17.09,16.54 12.87,12.94 10.47,11.36 C8.75,10.23 4.1,5.77 2.13,3.15 C4.16,2.62 5.35,1.43 5.86,0.8 C7.1,2.97 8.84,5.87 9.93,7.08 C10.72,7.96 16.29,11.97 18.58,13.37 C21.18,14.96 23.95,22.05 23.85,22.77 C23.78,23.23 22.83,25.16 22.14,26.51 Z" id="path-75" fill="#FCD1B9"></path>
                            <path d="M2.12,3.16 C4.09,5.77 8.74,10.23 10.46,11.37 C12.86,12.95 17.08,16.55 16.6,17.46 C16.6,17.46 9.34,12.59 6.46,10.08 C4.76,8.6 2.34,5.61 0.64,3.41 C1.18,3.36 1.67,3.28 2.12,3.16 Z" id="path-74" fill="#F3B8A6"></path>
                        </g>
                    </g>
                    <path d="M72.13,60.13 L69.9,59.82 L69.9,64.88 C70.58,64.79 72.39,64.48 73.67,63.59 C72.89,62.74 72.3,61.62 72.13,60.13 Z" id="path-73" fill="#F3B8A6"></path>
                    <path d="M73.68,63.59 C72.4,64.48 70.59,64.79 69.91,64.88 L69.91,69.84 C71.05,69.87 73.89,69.86 75.54,69.1 C77.07,68.41 77.96,66.79 78.34,65.94 C76.92,65.65 75.01,65.02 73.68,63.59 Z" id="path-72" fill="#FCD1B9"></path>
                    <path d="M78.34,65.94 C78.34,65.94 80.3,66.58 79.43,68.2 C78.57,69.82 77.16,69.1 77.16,69.1 C77.16,69.1 77.74,70.5 76.33,71.15 C74.93,71.8 74.28,70.57 74.28,70.57 C74.28,70.57 74.32,71.9 72.95,72.01 C71.58,72.12 71.28,70.95 71.28,70.95 C71.28,70.95 70.99,72.17 69.88,72.17 L69.9,69.83 C69.91,69.83 76.56,69.79 78.34,65.94 Z" id="path-71" fill="#FEF8FB"></path>
                    <g id="XMLID_1400_" transform="translate(53.000000, 94.000000)">
                        <path d="M0.73,82.09 C0.73,82.09 3.21,83.56 7.28,84.65 C7.96,73.33 10.72,32.65 16.91,0.98 C16.91,0.98 4.52,32.57 0.73,82.09 Z" id="path-70" fill="#F2C0CF"></path>
                        <path d="M7.28,84.65 C12.73,86.12 21.04,86.9 30.1,82.55 C28.03,55.32 16.91,0.98 16.91,0.98 C10.72,32.65 7.96,73.33 7.28,84.65 Z" id="path-69" fill="#FACCD8"></path>
                        <path d="M16.91,0.98 C16.91,0.98 28.03,55.32 30.1,82.55 C31.75,81.76 33.42,80.8 35.1,79.64 C35.1,79.64 27.1,17.23 16.91,0.98 Z" id="path-68" fill="#F2C0CF"></path>
                        <circle id="path-67" fill="#FFFFFF" cx="25.71" cy="79.17" r="1"></circle>
                        <path d="M13.75,71.76 C13.75,72.18 13.41,72.53 12.98,72.53 C12.56,72.53 12.21,72.19 12.21,71.76 C12.21,71.33 12.55,70.99 12.98,70.99 C13.41,70.99 13.75,71.34 13.75,71.76 Z" id="path-66" fill="#FFFFFF"></path>
                        <circle id="path-65" fill="#FFFFFF" cx="6.92" cy="67.35" r="1"></circle>
                        <path d="M24.94,61.17 C24.94,61.59 24.6,61.94 24.17,61.94 C23.75,61.94 23.4,61.6 23.4,61.17 C23.4,60.74 23.74,60.4 24.17,60.4 C24.6,60.4 24.94,60.74 24.94,61.17 Z" id="path-64" fill="#FFFFFF"></path>
                        <circle id="path-63" fill="#FFFFFF" cx="22.38" cy="52.03" r="1"></circle>
                        <path d="M19.19,41.1 C19.19,41.52 18.85,41.87 18.42,41.87 C18,41.87 17.65,41.53 17.65,41.1 C17.65,40.68 17.99,40.33 18.42,40.33 C18.85,40.34 19.19,40.68 19.19,41.1 Z" id="path-62" fill="#FFFFFF"></path>
                        <circle id="path-61" fill="#FFFFFF" cx="11.23" cy="37.24" r="1"></circle>
                        <path d="M17.03,29.96 C17.03,30.38 16.69,30.73 16.26,30.73 C15.84,30.73 15.49,30.39 15.49,29.96 C15.49,29.54 15.83,29.19 16.26,29.19 C16.69,29.19 17.03,29.53 17.03,29.96 Z" id="path-60" fill="#FFFFFF"></path>
                        <path d="M19.12,34.34 C19.12,34.76 18.78,35.11 18.35,35.11 C17.93,35.11 17.58,34.77 17.58,34.34 C17.58,33.91 17.92,33.57 18.35,33.57 C18.77,33.58 19.12,33.92 19.12,34.34 Z" id="path-59" fill="#FFFFFF"></path>
                        <path d="M15.59,46.07 C15.59,46.49 15.25,46.84 14.82,46.84 C14.4,46.84 14.05,46.5 14.05,46.07 C14.05,45.64 14.39,45.3 14.82,45.3 C15.25,45.3 15.59,45.64 15.59,46.07 Z" id="path-58" fill="#FFFFFF"></path>
                        <path d="M26.09,33.12 C26.09,33.54 25.75,33.89 25.32,33.89 C24.9,33.89 24.55,33.55 24.55,33.12 C24.55,32.7 24.89,32.35 25.32,32.35 C25.75,32.36 26.09,32.7 26.09,33.12 Z" id="path-57" fill="#FFFFFF"></path>
                        <circle id="path-56" fill="#FFFFFF" cx="20.72" cy="26.36" r="1"></circle>
                        <path d="M21.78,19.96 C21.78,20.38 21.44,20.73 21.01,20.73 C20.59,20.73 20.24,20.39 20.24,19.96 C20.24,19.53 20.58,19.19 21.01,19.19 C21.43,19.2 21.78,19.54 21.78,19.96 Z" id="path-55" fill="#FFFFFF"></path>
                        <path d="M15.74,21.98 C15.74,22.4 15.4,22.75 14.97,22.75 C14.55,22.75 14.2,22.41 14.2,21.98 C14.2,21.55 14.54,21.21 14.97,21.21 C15.39,21.21 15.74,21.55 15.74,21.98 Z" id="path-54" fill="#FFFFFF"></path>
                        <path d="M12.5,27.15 C12.5,27.57 12.16,27.92 11.73,27.92 C11.31,27.92 10.96,27.58 10.96,27.15 C10.96,26.73 11.3,26.38 11.73,26.38 C12.16,26.39 12.5,26.73 12.5,27.15 Z" id="path-53" fill="#FFFFFF"></path>
                        <circle id="path-52" fill="#FFFFFF" cx="18.93" cy="14.43" r="1"></circle>
                        <path d="M15.59,15.58 C15.59,16 15.25,16.35 14.82,16.35 C14.4,16.35 14.05,16.01 14.05,15.58 C14.05,15.15 14.39,14.81 14.82,14.81 C15.25,14.81 15.59,15.15 15.59,15.58 Z" id="path-51" fill="#FFFFFF"></path>
                        <path d="M18.69,8.46 C18.69,8.88 18.35,9.23 17.92,9.23 C17.5,9.23 17.15,8.89 17.15,8.46 C17.15,8.04 17.49,7.69 17.92,7.69 C18.34,7.69 18.69,8.04 18.69,8.46 Z" id="path-50" fill="#FFFFFF"></path>
                        <path d="M15.95,11.41 C15.95,11.83 15.61,12.18 15.18,12.18 C14.76,12.18 14.41,11.84 14.41,11.41 C14.41,10.99 14.75,10.64 15.18,10.64 C15.61,10.64 15.95,10.98 15.95,11.41 Z" id="path-49" fill="#FFFFFF"></path>
                        <path d="M32.13,68.5 C32.13,68.92 31.79,69.27 31.36,69.27 C30.94,69.27 30.59,68.93 30.59,68.5 C30.59,68.08 30.93,67.73 31.36,67.73 C31.79,67.73 32.13,68.08 32.13,68.5 Z" id="path-48" fill="#FFFFFF"></path>
                        <circle id="path-47" fill="#FFFFFF" cx="25.04" cy="72.24" r="1"></circle>
                        <path d="M28.32,52.18 C28.32,52.6 27.98,52.95 27.55,52.95 C27.13,52.95 26.78,52.61 26.78,52.18 C26.78,51.75 27.12,51.41 27.55,51.41 C27.98,51.41 28.32,51.75 28.32,52.18 Z" id="path-46" fill="#FFFFFF"></path>
                        <path d="M11.42,48.87 C11.42,49.29 11.08,49.64 10.65,49.64 C10.23,49.64 9.88,49.3 9.88,48.87 C9.88,48.44 10.22,48.1 10.65,48.1 C11.08,48.1 11.42,48.45 11.42,48.87 Z" id="path-45" fill="#FFFFFF"></path>
                        <path d="M16.53,51.6 C16.53,52.02 16.19,52.37 15.76,52.37 C15.34,52.37 14.99,52.03 14.99,51.6 C14.99,51.18 15.33,50.83 15.76,50.83 C16.19,50.83 16.53,51.18 16.53,51.6 Z" id="path-44" fill="#FFFFFF"></path>
                        <path d="M27.39,42.54 C27.39,42.96 27.05,43.31 26.62,43.31 C26.2,43.31 25.85,42.97 25.85,42.54 C25.85,42.12 26.19,41.77 26.62,41.77 C27.04,41.77 27.39,42.12 27.39,42.54 Z" id="path-43" fill="#FFFFFF"></path>
                        <circle id="path-42" fill="#FFFFFF" cx="18.3" cy="77.51" r="1"></circle>
                        <path d="M6.99,80.24 C6.99,80.66 6.65,81.01 6.22,81.01 C5.8,81.01 5.45,80.67 5.45,80.24 C5.45,79.81 5.79,79.47 6.22,79.47 C6.65,79.48 6.99,79.82 6.99,80.24 Z" id="path-41" fill="#FFFFFF"></path>
                        <circle id="path-40" fill="#FFFFFF" cx="19.74" cy="67.3" r="1"></circle>
                        <path d="M14.97,61.12 C14.97,61.54 14.63,61.89 14.2,61.89 C13.78,61.89 13.43,61.55 13.43,61.12 C13.43,60.7 13.77,60.35 14.2,60.35 C14.63,60.35 14.97,60.69 14.97,61.12 Z" id="path-39" fill="#FFFFFF"></path>
                    </g>
                    <g id="XMLID_1353_" transform="translate(43.000000, 16.000000)">
                        <path d="M40.49,6.55 C40.49,6.55 44.21,13.56 44.69,18.97 C45.17,24.39 49.6,39.22 34.27,43.52 C34.27,43.52 29.44,49.98 18.81,46.55 C18.81,46.55 3.89,48.34 0.72,24.47 C-1.9,4.72 23.08,-8.09 40.49,6.55 Z" id="path-38" fill="#FCD1B9"></path>
                        <g id="XMLID_1383_" transform="translate(30.000000, 14.000000)">
                            <g id="XMLID_1386_" transform="translate(1.000000, 6.000000)">
                                <path d="M9.94,5.26 C9.94,5.26 7.51,11.99 0.96,8.34 C0.96,8.34 1.91,3.33 6.17,2.61 C8.32,2.25 9.94,5.26 9.94,5.26 Z" id="path-37" fill="#EAEBEC"></path>
                                <path d="M1.97,6.9 C2.29,8.52 3.86,9.58 5.48,9.26 C7.1,8.94 8.16,7.37 7.84,5.75 C7.52,4.13 5.95,3.07 4.33,3.39 C2.71,3.71 1.65,5.28 1.97,6.9 Z" id="path-36" fill="#232323"></path>
                                <path d="M3.55,6.59 C3.7,7.34 4.42,7.83 5.17,7.68 C5.92,7.53 6.41,6.81 6.26,6.06 C6.11,5.31 5.39,4.82 4.64,4.97 C3.89,5.12 3.4,5.84 3.55,6.59 Z" id="path-35" fill="#000000"></path>
                                <path d="M2.37,5.8 C2.52,6.55 3.24,7.04 3.99,6.89 C4.74,6.74 5.23,6.02 5.08,5.27 C4.93,4.52 4.21,4.03 3.46,4.18 C2.71,4.32 2.22,5.05 2.37,5.8 Z" id="path-34" fill="#FDFDFE"></path>
                                <g id="XMLID_1390_" fill="#191919">
                                    <path d="M0.96,8.34 C0.96,8.33 0.97,8.29 0.99,8.23 C0.97,8.32 0.96,8.36 0.96,8.34 Z" id="path-33"></path>
                                    <path d="M5.05,2.31 C6.26,2.07 7.24,2.39 7.99,2.9 C8.69,2.55 9.7,1.82 9.44,0.51 C9.44,0.51 10.53,3.3 8.56,3.35 C8.75,3.52 8.91,3.7 9.06,3.88 C9.78,3.76 11.2,3.34 11.28,1.87 C11.28,1.87 11.71,5.2 9.39,4.3 C9.74,4.81 9.92,5.22 9.93,5.26 C9.93,5.26 7.39,2.86 5.06,3.31 C2.92,3.73 1.21,7.53 0.98,8.23 C1.16,7.46 2.07,2.9 5.05,2.31 Z" id="path-32"></path>
                                </g>
                                <path d="M9.28,6.51 C9.28,6.51 7.96,8.93 5.78,9.27 C3.6,9.61 1.91,8.86 1.91,8.86 C1.91,8.86 3.72,9.94 6,9.53 C8.29,9.12 9.28,6.51 9.28,6.51 Z" id="path-31" fill="#191919"></path>
                            </g>
                            <path d="M8.93,3.7 C8.93,3.7 5.5,0.55 3.33,0.71 C1.16,0.87 0.99,3.32 0.99,3.32 C0.99,3.32 1.84,2.05 3.25,1.82 C4.65,1.6 8.93,3.7 8.93,3.7 Z" id="path-30" fill="#191919"></path>
                            <path d="M3.4,18.96 C3.66,20.3 6.32,20.91 9.34,20.31 C12.36,19.72 14.59,18.15 14.32,16.81 C14.06,15.47 11.4,14.86 8.38,15.46 C5.36,16.06 3.13,17.62 3.4,18.96 Z" id="path-29" fill="#F59394"></path>
                        </g>
                        <g id="XMLID_1366_" transform="translate(5.000000, 18.000000)">
                            <g id="XMLID_1370_" transform="translate(0.000000, 7.000000)">
                                <path d="M3.84,6.15 C3.84,6.15 9.25,12.15 14.54,5.54 C14.54,5.54 11.42,0.71 6.66,1.78 C4.25,2.32 3.84,6.15 3.84,6.15 Z" id="path-28" fill="#EAEBEC"></path>
                                <path d="M12.87,4.46 C13.23,6.29 12.04,8.06 10.21,8.42 C8.38,8.78 6.61,7.59 6.25,5.76 C5.89,3.93 7.08,2.16 8.91,1.8 C10.74,1.44 12.52,2.63 12.87,4.46 Z" id="path-27" fill="#232323"></path>
                                <path d="M11.09,4.81 C11.26,5.65 10.71,6.47 9.86,6.64 C9.02,6.81 8.2,6.26 8.03,5.41 C7.86,4.57 8.41,3.75 9.26,3.58 C10.11,3.42 10.92,3.97 11.09,4.81 Z" id="path-26" fill="#000000"></path>
                                <path d="M11.99,3.48 C12.16,4.32 11.61,5.14 10.76,5.31 C9.92,5.48 9.1,4.93 8.93,4.08 C8.76,3.24 9.31,2.42 10.16,2.25 C11,2.08 11.82,2.63 11.99,3.48 Z" id="path-25" fill="#FDFDFE"></path>
                                <g id="XMLID_1372_" fill="#191919">
                                    <path d="M14.54,5.54 C14.54,5.53 14.51,5.49 14.46,5.44 C14.52,5.52 14.54,5.55 14.54,5.54 Z" id="path-24"></path>
                                    <path d="M7.69,0.98 C6.32,1.25 5.44,2 4.86,2.85 C3.98,2.79 2.61,2.45 2.33,0.98 C2.33,0.98 2.38,4.36 4.46,3.57 C4.34,3.83 4.24,4.09 4.16,4.34 C3.35,4.53 1.69,4.7 0.98,3.19 C0.98,3.19 1.95,6.85 4,4.92 C3.85,5.6 3.83,6.11 3.84,6.16 C3.84,6.16 5.47,2.57 8.09,2.05 C10.51,1.58 13.91,4.82 14.46,5.45 C13.96,4.7 11.06,0.32 7.69,0.98 Z" id="path-23"></path>
                                </g>
                                <path d="M5.06,7.18 C5.06,7.18 7.47,9.15 9.89,8.57 C12.31,7.99 13.76,6.49 13.76,6.49 C13.76,6.49 12.34,8.39 9.78,8.94 C7.22,9.48 5.06,7.18 5.06,7.18 Z" id="path-22" fill="#191919"></path>
                            </g>
                            <path d="M3.87,5.6 C3.87,5.6 5.86,1.39 7.92,0.72 C9.99,0.05 11.08,2.25 11.08,2.25 C11.08,2.25 9.81,1.4 8.43,1.72 C7.04,2.03 3.87,5.6 3.87,5.6 Z" id="path-21" fill="#191919"></path>
                            <path d="M14.77,17.64 C15.03,18.98 12.8,20.54 9.79,21.14 C6.77,21.73 4.12,21.13 3.85,19.79 C3.59,18.45 5.82,16.89 8.83,16.29 C11.85,15.69 14.5,16.3 14.77,17.64 Z" id="path-20" fill="#F59394"></path>
                        </g>
                        <path d="M26.27,31.44 C26.47,31.58 28.22,32.85 27.87,33.76 C27.52,34.68 26.87,35.07 26.87,35.07 C26.87,35.07 27.66,34.15 27.25,33.44 C26.84,32.73 26.27,31.44 26.27,31.44 Z" id="path-19" fill="#191919"></path>
                        <path d="M30.94,36.59 C30.94,36.59 28.84,40.39 26.32,40.88 C23.79,41.38 21.51,40.14 20.91,39.01 C20.91,39.01 21.7,39.18 22.61,39.15 C23.51,39.12 25.07,37.63 25.48,37.55 C25.89,37.47 27.54,37.29 27.54,37.29 C27.54,37.29 28.49,37.97 29.15,37.82 C29.81,37.68 30.73,36.48 30.73,36.48 L30.94,36.59 Z" id="path-18" fill="#F37576"></path>
                        <g id="XMLID_1355_" transform="translate(19.000000, 35.000000)" fill="#DD434B">
                            <path d="M11.72,1.48 C11.76,1.42 10.75,2.68 10.05,2.73 C9.36,2.78 8.8,2.07 8.15,2.25 C7.5,2.42 7.07,2.33 6.39,2.48 C5.72,2.63 4.67,4.03 3.63,4.08 C2.59,4.13 1.62,3.79 1.62,3.79 C1.62,3.79 3.08,6.3 6.4,6.19 C9.72,6.09 11.83,1.7 11.83,1.7 C11.83,1.7 9.84,5.54 6.75,5.84 C3.67,6.14 2.02,4.13 2.02,4.13 C2.02,4.13 2.82,4.98 6.61,4.33 C6.61,4.33 7.54,4.37 7.95,4.46 C8.36,4.55 8.87,3.86 9.23,3.72 C9.59,3.58 10.56,3.2 11.13,2.56 C11.13,2.56 9.57,3.46 9.06,3.56 C8.55,3.66 8.32,4.06 7.81,4.13 C7.3,4.21 7.18,4.03 6.67,4.05 C6.17,4.06 3.91,4.66 2.52,4.2 C2.52,4.2 3.47,4.35 4.18,4.1 C4.89,3.85 6.01,2.87 6.43,2.69 C6.86,2.51 7.27,2.65 7.64,2.57 C8.01,2.5 8.08,2.4 8.29,2.41 C8.5,2.42 9.71,3.03 10.07,2.96 C10.43,2.89 11.33,2.09 11.72,1.48 Z" id="path-17"></path>
                            <path d="M13.08,1.64 C13.08,1.64 11.77,1.73 10.91,1.16 C10.91,1.16 11.51,2.18 13.08,1.64 Z" id="path-16"></path>
                            <path d="M2.69,3.13 C2.73,3.11 1.2,3.58 0.53,4.8 C0.53,4.8 1.51,3.77 2.69,3.13 Z" id="path-15"></path>
                        </g>
                    </g>
                    <path d="M69.21,10.77 C68.2,10.71 67.15,10.67 66.07,10.66 C69.9,12.43 73.73,14.97 73.73,14.97 L69.21,10.77 Z" id="path-14" fill="#F89820"></path>
                    <path d="M55.02,11.94 C54.5,12.1 53.98,12.27 53.48,12.46 C54.2,14.83 54.55,17.85 54.55,17.85 C54.55,17.85 54.51,14.3 55.02,11.94 Z" id="path-13" fill="#F89820"></path>
                    <path d="M97.22,46.9 C96.3,39.44 93.31,39.1 92,27.57 C91.11,19.7 86.49,14.39 77.61,12.04 C84.8,18.08 90.44,28.66 88.1,24.85 C88.02,24.72 87.94,24.6 87.85,24.47 C85,20.4 76.78,16.7 76.78,16.7 C81.57,21.97 82.72,29.83 82.72,29.83 L78.69,30.31 C75.91,23.41 69.2,17.56 69.2,17.56 C73.23,22.93 75.53,30.6 75.53,30.6 C72.94,30.5 64.5,32.23 64.5,32.23 C63.73,28.68 58.75,21.01 58.75,21.01 C59.33,23.69 61.24,32.99 61.24,32.99 C56.16,33.85 49.74,37.11 49.74,37.11 C47.44,32.12 46,24.84 46,24.84 C43.6,28.2 40.92,35.1 40.92,35.1 C40.5,29.35 42.41,22.71 43.87,18.61 C37.89,24.55 35.41,32.41 36.64,37.06 C38.77,45.09 42.45,55.73 38.18,56.29 C33.91,56.86 34.21,52.65 34.21,52.65 C29.29,55.67 32.99,65.92 41.36,64.49 C49.73,63.06 48.65,55.74 46.26,48.01 C43.28,38.38 44.77,30.8 44.77,30.8 C44.92,38.31 49.31,45.63 49.31,45.63 C60.18,38.6 85.05,37.56 85.05,37.56 C84.74,32.35 81.37,24.23 81.37,24.23 C84.04,27.3 86.05,34.26 86.05,34.26 C90.08,43.96 90.23,42.3 91.17,46.66 C92.84,54.37 83.06,56.86 83.06,56.86 C90.59,62.11 98.14,54.37 97.22,46.9 Z" id="path-12" fill="#F89820"></path>
                    <path d="M40.94,35.11 C40.94,35.11 43.62,28.21 46.02,24.85 C46.02,24.85 47.46,32.14 49.76,37.12 C49.76,37.12 56.18,33.86 61.26,33 C61.26,33 59.34,23.7 58.77,21.02 C58.77,21.02 63.76,28.69 64.52,32.24 C64.52,32.24 72.96,30.51 75.55,30.61 C75.55,30.61 73.25,22.94 69.22,17.57 C69.22,17.57 75.93,23.42 78.71,30.32 L82.74,29.84 C82.74,29.84 81.59,21.98 76.8,16.71 C76.8,16.71 85.01,20.41 87.87,24.48 C87.96,24.6 88.04,24.73 88.12,24.86 C90.46,28.67 84.82,18.09 77.63,12.05 C75.16,11.4 72.36,10.97 69.22,10.78 L73.73,14.99 C73.73,14.99 69.91,12.44 66.07,10.68 C64.9,10.67 63.69,10.68 62.43,10.73 C61.99,10.75 61.56,10.78 61.13,10.81 C61.22,12.78 62.99,16.05 62.99,16.05 C62.99,16.05 60.52,12.95 58.43,11.15 C57.25,11.35 56.11,11.63 55.03,11.96 C54.52,14.32 54.56,17.87 54.56,17.87 C54.56,17.87 54.21,14.86 53.49,12.48 C49.66,13.91 46.45,16.09 43.89,18.63 C42.42,22.72 40.51,29.35 40.94,35.11 Z" id="path-11" fill="#F6B93C"></path>
                    <path d="M62.99,16.03 C62.99,16.03 61.22,12.76 61.13,10.79 C60.2,10.86 59.3,10.98 58.43,11.13 C60.51,12.92 62.99,16.03 62.99,16.03 Z" id="path-10" fill="#F89820"></path>
                    <g id="XMLID_1320_" transform="translate(47.000000, 0.000000)">
                        <g id="XMLID_1329_" transform="translate(1.000000, 1.000000)">
                            <path d="M16.3,7.55 C18.12,7.6 20.13,0.55 20.13,0.55 C18.45,6.73 18.55,10.38 18.55,10.38 C17.86,11.06 17.08,11.6 16.24,12.02 L16.22,7.53 C16.25,7.54 16.28,7.55 16.3,7.55 Z" id="path-9" fill="#F8EF70"></path>
                            <path d="M16.23,7.54 L16.25,12.03 C15.7,12.31 15.13,12.54 14.56,12.73 C14.49,10.97 14.37,7.12 14.31,5.23 C14.76,6.37 15.4,7.45 16.23,7.54 Z" id="path-8" fill="#F8F39D"></path>
                            <path d="M0.44,4.58 C0.44,4.58 4.68,9.61 6.37,9.55 L8.32,13.55 C7.06,13.52 6.24,13.4 6.24,13.4 C3.84,9.13 0.44,4.58 0.44,4.58 Z" id="path-7" fill="#F8EF70"></path>
                            <path d="M11.19,8.81 C13.68,8.62 13.53,2.52 13.53,2.52 C13.53,2.52 13.8,3.91 14.32,5.22 C14.38,7.11 14.5,10.96 14.57,12.72 C13.55,13.06 12.51,13.27 11.52,13.39 L10.23,8.58 C10.52,8.75 10.85,8.84 11.19,8.81 Z" id="path-6" fill="#F8EF70"></path>
                            <path d="M6.51,9.53 C8.09,9.15 6.83,3.27 6.83,3.27 C6.83,3.27 8.22,7.55 10.21,8.59 L11.5,13.4 C10.31,13.55 9.2,13.58 8.31,13.56 L6.36,9.56 C6.42,9.55 6.47,9.54 6.51,9.53 Z" id="path-5" fill="#F8F39D"></path>
                        </g>
                        <circle id="path-4" fill="#F8F39D" cx="21.14" cy="1.65" r="1"></circle>
                        <path d="M13.69,3.01 C13.69,3.5 14.09,3.9 14.58,3.9 C15.07,3.9 15.47,3.5 15.47,3.01 C15.47,2.52 15.07,2.12 14.58,2.12 C14.08,2.13 13.69,2.52 13.69,3.01 Z" id="path-3" fill="#F8F39D"></path>
                        <path d="M0.45,5.34 C0.45,5.83 0.85,6.23 1.34,6.23 C1.83,6.23 2.23,5.83 2.23,5.34 C2.23,4.85 1.83,4.45 1.34,4.45 C0.85,4.45 0.45,4.85 0.45,5.34 Z" id="path-2" fill="#F8F39D"></path>
                        <circle id="path-1" fill="#F8F39D" cx="7.72" cy="3.97" r="1"></circle>
                    </g>
                </g>
            </g>
        </g>
    </g>
</svg>
